<svg width="32" height="20" viewBox="0 0 32 20" fill="none" xmlns="http://www.w3.org/2000/svg">
<path fill-rule="evenodd" clip-rule="evenodd" d="M10.0693 17.037C13.9827 17.037 17.1551 13.8864 17.1551 10C17.1551 6.11355 13.9827 2.96296 10.0693 2.96296C6.15592 2.96296 2.9835 6.11355 2.9835 10C2.9835 13.8864 6.15592 17.037 10.0693 17.037ZM10.0693 20C15.6304 20 20.1386 15.5228 20.1386 10C20.1386 4.47715 15.6304 0 10.0693 0C4.50818 0 0 4.47715 0 10C0 15.5228 4.50818 20 10.0693 20Z" fill="black"/>
<path fill-rule="evenodd" clip-rule="evenodd" d="M10.0693 17.037C13.9827 17.037 17.1551 13.8864 17.1551 10C17.1551 6.11355 13.9827 2.96296 10.0693 2.96296C6.15592 2.96296 2.9835 6.11355 2.9835 10C2.9835 13.8864 6.15592 17.037 10.0693 17.037ZM10.0693 20C15.6304 20 20.1386 15.5228 20.1386 10C20.1386 4.47715 15.6304 0 10.0693 0C4.50818 0 0 4.47715 0 10C0 15.5228 4.50818 20 10.0693 20Z" fill="white"/>
<path fill-rule="evenodd" clip-rule="evenodd" d="M17.9602 16.2127C17.3099 17.0262 16.5348 17.7368 15.6636 18.316C17.2636 19.3797 19.1877 20 21.2578 20C26.8189 20 31.3271 15.5228 31.3271 10C31.3271 4.47715 26.8189 0 21.2578 0C19.1878 0 17.2636 0.620328 15.6636 1.68401C16.5348 2.26318 17.3099 2.97378 17.9602 3.78726C18.9435 3.27437 20.0647 2.9835 21.2578 2.9835C25.1906 2.9835 28.3436 6.14429 28.3436 10C28.3436 13.8557 25.1906 17.0165 21.2578 17.0165C20.0647 17.0165 18.9434 16.7256 17.9602 16.2127Z" fill="black"/>
<path fill-rule="evenodd" clip-rule="evenodd" d="M17.9602 16.2127C17.3099 17.0262 16.5348 17.7368 15.6636 18.316C17.2636 19.3797 19.1877 20 21.2578 20C26.8189 20 31.3271 15.5228 31.3271 10C31.3271 4.47715 26.8189 0 21.2578 0C19.1878 0 17.2636 0.620328 15.6636 1.68401C16.5348 2.26318 17.3099 2.97378 17.9602 3.78726C18.9435 3.27437 20.0647 2.9835 21.2578 2.9835C25.1906 2.9835 28.3436 6.14429 28.3436 10C28.3436 13.8557 25.1906 17.0165 21.2578 17.0165C20.0647 17.0165 18.9434 16.7256 17.9602 16.2127Z" fill="url(#paint0_linear_327_1475)"/>
<defs>
<linearGradient id="paint0_linear_327_1475" x1="31.679" y1="4.13305" x2="16.8438" y2="12.6664" gradientUnits="userSpaceOnUse">
<stop offset="1" stop-color="white"/>
</linearGradient>
</defs>
</svg>
