<svg width="24" height="24" viewBox="0 0 24 24" fill="none" xmlns="http://www.w3.org/2000/svg">
<path fill-rule="evenodd" clip-rule="evenodd" d="M7.49496 9.51671C5.46296 11.7157 5.50596 15.2017 7.62396 17.3607C8.65796 18.4177 10.032 19.0007 11.496 19.0017H11.501C12.968 19.0017 14.347 18.4187 15.386 17.3607C17.542 15.1627 17.538 11.5877 15.377 9.39271L12.391 6.34171C12.089 8.82371 11.158 11.0017 9.49996 11.0017C8.99196 11.0017 8.16396 10.7757 7.49496 9.51671ZM11.501 21.0017H11.494C9.48796 20.9997 7.60596 20.2047 6.19496 18.7597C3.28096 15.7897 3.27696 10.9567 6.18596 7.99171L7.16896 6.99771C7.42296 6.74372 7.79196 6.64571 8.14096 6.73671C8.48796 6.83071 8.75796 7.10371 8.84796 7.45171C9.07796 8.34071 9.35196 8.77772 9.50296 8.94372C9.85796 8.56972 10.5 7.05871 10.5 4.50171C10.5 4.35471 10.5 4.21571 10.492 4.07671C10.473 3.78171 10.586 3.49271 10.8 3.28871C11.197 2.91171 11.833 2.91171 12.214 3.30371L16.804 7.99271C19.724 10.9567 19.729 15.7897 16.814 18.7607C15.395 20.2067 13.509 21.0017 11.501 21.0017Z" fill="#231F20"/>
<mask id="mask0_19_84" style="mask-type:luminance" maskUnits="userSpaceOnUse" x="4" y="3" width="15" height="19">
<path fill-rule="evenodd" clip-rule="evenodd" d="M7.49496 9.51671C5.46296 11.7157 5.50596 15.2017 7.62396 17.3607C8.65796 18.4177 10.032 19.0007 11.496 19.0017H11.501C12.968 19.0017 14.347 18.4187 15.386 17.3607C17.542 15.1627 17.538 11.5877 15.377 9.39271L12.391 6.34171C12.089 8.82371 11.158 11.0017 9.49996 11.0017C8.99196 11.0017 8.16396 10.7757 7.49496 9.51671ZM11.501 21.0017H11.494C9.48796 20.9997 7.60596 20.2047 6.19496 18.7597C3.28096 15.7897 3.27696 10.9567 6.18596 7.99171L7.16896 6.99771C7.42296 6.74372 7.79196 6.64571 8.14096 6.73671C8.48796 6.83071 8.75796 7.10371 8.84796 7.45171C9.07796 8.34071 9.35196 8.77772 9.50296 8.94372C9.85796 8.56972 10.5 7.05871 10.5 4.50171C10.5 4.35471 10.5 4.21571 10.492 4.07671C10.473 3.78171 10.586 3.49271 10.8 3.28871C11.197 2.91171 11.833 2.91171 12.214 3.30371L16.804 7.99271C19.724 10.9567 19.729 15.7897 16.814 18.7607C15.395 20.2067 13.509 21.0017 11.501 21.0017Z" fill="white"/>
</mask>
<g mask="url(#mask0_19_84)">
<rect width="100" height="100" fill="white"/>
</g>
</svg>
