<svg width="133" height="33" viewBox="0 0 133 33" fill="none" xmlns="http://www.w3.org/2000/svg">
<g clip-path="url(#clip0_71_138)">
<path d="M19.6871 15.39C19.6564 11.7379 22.6864 9.95777 22.8274 9.87823C21.11 7.38235 18.4481 7.03977 17.5097 7.01531C15.271 6.78288 13.1058 8.34892 11.965 8.34892C10.8057 8.34892 9.05152 7.03977 7.1563 7.07651C4.72127 7.11318 2.44574 8.52021 1.20064 10.698C-1.37544 15.1453 0.544371 21.6785 3.01617 25.2755C4.24897 27.0373 5.6904 29.001 7.57953 28.9337C9.42568 28.8603 10.1188 27.7592 12.3452 27.7592C14.5533 27.7592 15.2034 28.9337 17.1294 28.8909C19.1105 28.8603 20.3618 27.123 21.5516 25.349C22.9808 23.3303 23.5512 21.3421 23.5758 21.2442C23.5267 21.2136 19.7239 19.7639 19.6871 15.39ZM16.0499 4.64791C17.0435 3.4061 17.7243 1.72384 17.5342 0.0109863C16.099 0.0721269 14.2957 1.00196 13.2652 2.21323C12.3514 3.28375 11.5295 5.03328 11.7442 6.67887C13.3511 6.79508 15.0133 5.86524 16.0499 4.64791Z" fill="white"/>
<path d="M46.4411 28.671H43.859L42.4421 24.242H37.5291L36.1798 28.671H33.665L38.535 13.5856H41.5404L46.4411 28.671ZM42.0189 22.3824L40.737 18.4428C40.6021 18.0391 40.3444 17.0909 39.9764 15.5983H39.9335C39.7863 16.2406 39.5409 17.1888 39.2158 18.4428L37.9585 22.3824H42.0189ZM58.9416 23.0981C58.9416 24.9456 58.4383 26.4076 57.4325 27.4843C56.5305 28.4386 55.4083 28.9157 54.0711 28.9157C52.6236 28.9157 51.5873 28.4018 50.9558 27.3741V33.0816H48.5328V21.3669C48.5328 20.2046 48.5023 19.0117 48.4408 17.7944H50.5748L50.7104 19.5195H50.7527C51.5628 18.2226 52.7895 17.568 54.4329 17.568C55.7211 17.568 56.7944 18.0758 57.6534 19.0913C58.5118 20.1068 58.9416 21.4465 58.9416 23.0981ZM56.4756 23.1898C56.4756 22.1316 56.2362 21.2568 55.7581 20.5717C55.2363 19.8559 54.5314 19.5011 53.6479 19.5011C53.0534 19.5011 52.5072 19.703 52.0224 20.0945C51.5384 20.4921 51.2189 21.0121 51.0721 21.6483C51.0047 21.8869 50.9677 22.1377 50.9617 22.3824V24.1992C50.9617 24.9884 51.207 25.6551 51.6918 26.2057C52.1759 26.7502 52.8081 27.0254 53.5864 27.0254C54.5003 27.0254 55.2119 26.6706 55.7211 25.9733C56.2177 25.2637 56.4756 24.3399 56.4756 23.1898ZM71.4904 23.0981C71.4904 24.9456 70.9878 26.4076 69.9813 27.4843C69.08 28.4386 67.9577 28.9157 66.6206 28.9157C65.173 28.9157 64.1361 28.4018 63.5046 27.3741V33.0816H61.0816V21.3669C61.0816 20.2046 61.0511 19.0117 60.9896 17.7944H63.1243L63.2592 19.5195H63.3022C64.1116 18.2226 65.3383 17.568 66.9823 17.568C68.2705 17.568 69.3438 18.0758 70.2022 19.0913C71.0553 20.1068 71.4904 21.4465 71.4904 23.0981ZM69.0185 23.1898C69.0185 22.1316 68.7797 21.2568 68.301 20.5717C67.7799 19.8559 67.0742 19.5011 66.1914 19.5011C65.5962 19.5011 65.05 19.703 64.5593 20.0945C64.0753 20.4921 63.7558 21.0121 63.609 21.6483C63.535 21.948 63.4927 22.1927 63.4927 22.3824V24.1992C63.4927 24.9884 63.738 25.6551 64.2221 26.2057C64.7068 26.7502 65.3383 27.0254 66.124 27.0254C67.0372 27.0254 67.7488 26.6706 68.258 25.9733C68.7672 25.2637 69.0185 24.3399 69.0185 23.1898ZM85.5179 24.4439C85.5179 25.7286 85.0702 26.7746 84.1748 27.576C83.1934 28.4569 81.8133 28.8974 80.0529 28.8974C78.4274 28.8974 77.1214 28.5854 76.1334 27.9552L76.6915 25.9427C77.7529 26.5728 78.9241 26.8847 80.1938 26.8847C81.1077 26.8847 81.8192 26.6768 82.3284 26.2669C82.8376 25.857 83.0949 25.3065 83.0949 24.6213C83.0949 24.0096 82.8806 23.4957 82.4633 23.0736C82.046 22.6577 81.353 22.2661 80.3783 21.9114C77.7284 20.9265 76.4032 19.4828 76.4032 17.5926C76.4032 16.3568 76.8694 15.3414 77.8078 14.5522C78.7402 13.7631 79.9795 13.3655 81.5249 13.3655C82.8991 13.3655 84.0458 13.604 84.9597 14.0812L84.3527 16.051C83.4936 15.5861 82.5308 15.3597 81.4449 15.3597C80.5925 15.3597 79.918 15.5677 79.4392 15.9836C79.0345 16.3568 78.8321 16.8095 78.8321 17.3479C78.8321 17.9412 79.0656 18.4367 79.5318 18.8221C79.9365 19.1769 80.6659 19.5684 81.7273 19.9844C83.0274 20.5105 83.9843 21.1161 84.598 21.8196C85.211 22.5231 85.5179 23.3979 85.5179 24.4439ZM93.5527 19.6112H90.8784V24.8905C90.8784 26.2363 91.3505 26.9031 92.2955 26.9031C92.7307 26.9031 93.0864 26.8664 93.3748 26.793L93.4422 28.6282C92.9641 28.8056 92.3385 28.8974 91.5595 28.8974C90.6026 28.8974 89.854 28.6037 89.3144 28.0226C88.7748 27.4414 88.505 26.4626 88.505 25.0924V19.6112H86.9165V17.8005H88.505V15.8063L90.885 15.0905V17.8005H93.5586L93.5527 19.6112ZM105.58 23.147C105.58 24.8171 105.102 26.1935 104.145 27.264C103.145 28.3712 101.815 28.9218 100.152 28.9218C98.5514 28.9218 97.2758 28.3896 96.3248 27.3374C95.3745 26.2791 94.9024 24.9394 94.9024 23.3306C94.9024 21.6422 95.393 20.2658 96.3744 19.1891C97.3558 18.1125 98.6744 17.5803 100.336 17.5803C101.937 17.5803 103.225 18.1125 104.194 19.1708C105.114 20.1924 105.58 21.5199 105.58 23.147ZM103.066 23.2021C103.066 22.205 102.851 21.3486 102.415 20.639C101.907 19.7764 101.183 19.3421 100.238 19.3421C99.2689 19.3421 98.521 19.7764 98.0177 20.639C97.5826 21.3546 97.3677 22.2233 97.3677 23.2511C97.3677 24.2482 97.5826 25.1046 98.0177 25.8203C98.5395 26.6828 99.2755 27.1172 100.22 27.1172C101.146 27.1172 101.87 26.6768 102.398 25.802C102.845 25.0618 103.066 24.1992 103.066 23.2021ZM113.462 19.9232C113.21 19.8804 112.953 19.8559 112.695 19.8559C111.843 19.8559 111.187 20.174 110.721 20.8164C110.316 21.3852 110.114 22.101 110.114 22.9636V28.671H107.691V21.2201C107.691 20.0762 107.672 18.9383 107.623 17.7944H109.733L109.819 19.8743H109.886C110.144 19.1585 110.543 18.5835 111.101 18.1492C111.603 17.7699 112.223 17.568 112.855 17.568C113.082 17.568 113.278 17.5864 113.462 17.6109V19.9232ZM124.3 22.7189C124.306 23.0859 124.275 23.4529 124.214 23.8139H116.94C116.965 24.8905 117.32 25.7102 117.995 26.2791C118.608 26.7868 119.4 27.0377 120.375 27.0377C121.454 27.0377 122.436 26.8664 123.319 26.5238L123.699 28.1999C122.668 28.6465 121.448 28.8729 120.044 28.8729C118.351 28.8729 117.025 28.3774 116.057 27.3864C115.094 26.3953 114.609 25.0618 114.609 23.3917C114.609 21.7523 115.057 20.3881 115.959 19.2993C116.897 18.1369 118.173 17.5558 119.774 17.5558C121.344 17.5558 122.533 18.1369 123.343 19.2993C123.975 20.223 124.3 21.3608 124.3 22.7189ZM121.988 22.0949C122.006 21.3792 121.847 20.7613 121.516 20.2352C121.098 19.5623 120.448 19.2259 119.583 19.2259C118.792 19.2259 118.148 19.5562 117.651 20.2107C117.246 20.7307 117.008 21.3608 116.934 22.0888L121.988 22.0949Z" fill="white"/>
<path d="M36.8298 8.25757C36.1552 8.25757 35.5725 8.22697 35.0879 8.1719V0.873946C35.7688 0.769934 36.4557 0.714861 37.1427 0.720995C39.9211 0.720995 41.2031 2.08515 41.2031 4.30573C41.1969 6.86889 39.6881 8.25757 36.8298 8.25757ZM37.2407 1.65697C36.8667 1.65697 36.5477 1.68144 36.284 1.73644V7.2788C36.425 7.30327 36.7011 7.30934 37.0875 7.30934C38.9091 7.30934 39.9457 6.27555 39.9457 4.34247C39.9395 2.61127 39.0011 1.65697 37.2407 1.65697ZM45.1898 8.31258C43.6258 8.31258 42.6076 7.14418 42.6076 5.5598C42.6076 3.90809 43.6442 2.73362 45.2757 2.73362C46.8213 2.73362 47.8581 3.84695 47.8581 5.47413C47.8581 7.14418 46.7907 8.31258 45.1898 8.31258ZM45.2327 3.60225C44.374 3.60225 43.8221 4.40361 43.8221 5.5292C43.8221 6.63032 44.3863 7.43168 45.2205 7.43168C46.0608 7.43168 46.619 6.57525 46.619 5.50473C46.625 4.41588 46.0731 3.60225 45.2327 3.60225ZM56.7883 2.8437L55.1139 8.19023H54.0221L53.329 5.87177C53.1571 5.30284 53.0103 4.72784 52.8998 4.14671H52.8754C52.7894 4.72784 52.6234 5.31511 52.4455 5.87177L51.7095 8.19023H50.6058L49.0293 2.8437H50.256L50.863 5.38239C51.0046 5.98799 51.1269 6.55692 51.2254 7.10138H51.2499C51.3359 6.64866 51.4827 6.092 51.6916 5.39465L52.4521 2.8437H53.4209L54.151 5.33958C54.3289 5.94518 54.4698 6.53858 54.5802 7.10138H54.6106C54.6906 6.55078 54.807 5.96965 54.973 5.33958L55.6231 2.8437H56.7883ZM62.9648 8.19023H61.7751V5.11936C61.7751 4.17118 61.4127 3.70013 60.6952 3.70013C59.9903 3.70013 59.5056 4.30573 59.5056 5.00921V8.19023H58.3159V4.37301C58.3159 3.90202 58.3033 3.39429 58.2729 2.8437H59.3217L59.3766 3.66953H59.407C59.7264 3.10066 60.3765 2.73362 61.1066 2.73362C62.2288 2.73362 62.9708 3.59005 62.9708 4.99088L62.9648 8.19023ZM66.2462 8.19023H65.0565V0.390625H66.2462V8.19023ZM70.5949 8.31258C69.0309 8.31258 68.0125 7.14418 68.0125 5.5598C68.0125 3.90809 69.0494 2.73362 70.6808 2.73362C72.2263 2.73362 73.2632 3.84695 73.2632 5.47413C73.2632 7.14418 72.1899 8.31258 70.5949 8.31258ZM70.6379 3.60225C69.7788 3.60225 69.2273 4.40361 69.2273 5.5292C69.2273 6.63032 69.7914 7.43168 70.6253 7.43168C71.4658 7.43168 72.0239 6.57525 72.0239 5.50473C72.0239 4.41588 71.4784 3.60225 70.6379 3.60225ZM77.9611 8.19023L77.8751 7.57236H77.8447C77.483 8.06789 76.9493 8.30645 76.2748 8.30645C75.3113 8.30645 74.6308 7.63357 74.6308 6.73434C74.6308 5.41299 75.7775 4.73398 77.7647 4.73398V4.6361C77.7647 3.93256 77.391 3.57778 76.655 3.57778C76.1273 3.57778 75.6611 3.7124 75.2564 3.97543L75.017 3.19241C75.5143 2.88651 76.1332 2.72749 76.8574 2.72749C78.2554 2.72749 78.9669 3.46157 78.9669 4.9358V6.90562C78.9669 7.44395 78.9914 7.866 79.0469 8.1841L77.9611 8.19023ZM77.7957 5.5292C76.4705 5.5292 75.8086 5.8473 75.8086 6.60586C75.8086 7.16865 76.1518 7.44395 76.6239 7.44395C77.2317 7.44395 77.7957 6.9851 77.7957 6.35503V5.5292ZM84.7387 8.19023L84.6838 7.3338H84.6528C84.3095 7.98228 83.7329 8.31258 82.9294 8.31258C81.6352 8.31258 80.6784 7.18092 80.6784 5.58427C80.6784 3.91422 81.6723 2.73362 83.0273 2.73362C83.7455 2.73362 84.254 2.97218 84.5364 3.46157H84.5608V0.390625H85.7505V6.74654C85.7505 7.2604 85.7631 7.74978 85.7935 8.1841H84.7387V8.19023ZM84.5668 5.04595C84.5668 4.2996 84.0702 3.65733 83.3097 3.65733C82.4262 3.65733 81.8865 4.44035 81.8865 5.53534C81.8865 6.61199 82.4447 7.35221 83.2852 7.35221C84.0331 7.35221 84.5668 6.70373 84.5668 5.93298V5.04595ZM93.3197 8.31258C91.7558 8.31258 90.7374 7.14418 90.7374 5.5598C90.7374 3.90809 91.7736 2.73362 93.4057 2.73362C94.9512 2.73362 95.9874 3.84695 95.9874 5.47413C95.9874 7.14418 94.9207 8.31258 93.3197 8.31258ZM93.3627 3.60225C92.5037 3.60225 91.9515 4.40361 91.9515 5.5292C91.9515 6.63032 92.5163 7.43168 93.3502 7.43168C94.1907 7.43168 94.7488 6.57525 94.7488 5.50473C94.7548 4.41588 94.2026 3.60225 93.3627 3.60225ZM102.397 8.19023H101.207V5.11936C101.207 4.17118 100.845 3.70013 100.128 3.70013C99.4222 3.70013 98.9381 4.30573 98.9381 5.00921V8.19023H97.7478V4.37301C97.7478 3.90202 97.7359 3.39429 97.7048 2.8437H98.7536L98.8092 3.66953H98.8396C99.159 3.10066 99.8091 2.73362 100.538 2.73362C101.661 2.73362 102.403 3.59005 102.403 4.99088V8.19023H102.397ZM110.408 3.7368H109.095V6.33056C109.095 6.99123 109.322 7.3216 109.788 7.3216C109.996 7.3216 110.174 7.29713 110.316 7.26653L110.346 8.16576C110.113 8.25144 109.807 8.30038 109.42 8.30038C108.481 8.30038 107.917 7.78652 107.917 6.42844V3.73073H107.132V2.83757H107.917V1.85879L109.089 1.50402V2.83757H110.402L110.408 3.7368ZM116.719 8.19023H115.529V5.14383C115.529 4.18952 115.167 3.70626 114.45 3.70626C113.83 3.70626 113.26 4.12224 113.26 4.97254V8.19637H112.07V0.390625H113.26V3.60225H113.284C113.659 3.02112 114.204 2.73362 114.897 2.73362C116.032 2.73362 116.725 3.61445 116.725 5.00921L116.719 8.19023ZM123.177 5.8045H119.602C119.626 6.81388 120.295 7.38888 121.289 7.38888C121.816 7.38888 122.306 7.30327 122.736 7.13805L122.92 7.96387C122.411 8.1841 121.816 8.29425 121.123 8.29425C119.448 8.29425 118.455 7.23593 118.455 5.60261C118.455 3.96316 119.473 2.73362 120.988 2.73362C122.355 2.73362 123.214 3.74293 123.214 5.27231C123.226 5.44359 123.214 5.62708 123.177 5.8045ZM122.086 4.9542C122.086 4.12831 121.669 3.54718 120.908 3.54718C120.221 3.54718 119.682 4.14058 119.608 4.9542H122.086Z" fill="white"/>
</g>
<defs>
<clipPath id="clip0_71_138">
<rect width="133" height="33" fill="white"/>
</clipPath>
</defs>
</svg>
