<svg width="20" height="20" viewBox="0 0 20 20" fill="none" xmlns="http://www.w3.org/2000/svg">
<g id="Icon/Outline/email">
<path id="Mask" fill-rule="evenodd" clip-rule="evenodd" d="M15.8332 15.0002H4.1665C3.70734 15.0002 3.33317 14.6268 3.33317 14.1668V6.04183L9.49984 10.6668C9.64817 10.7785 9.824 10.8335 9.99984 10.8335C10.1757 10.8335 10.3515 10.7785 10.4998 10.6668L16.6665 6.04183V14.1668C16.6665 14.6268 16.2923 15.0002 15.8332 15.0002ZM15.2773 5.00016L9.99984 8.9585L4.72234 5.00016H15.2773ZM15.8332 3.3335H4.1665C2.78817 3.3335 1.6665 4.45516 1.6665 5.8335V14.1668C1.6665 15.5452 2.78817 16.6668 4.1665 16.6668H15.8332C17.2115 16.6668 18.3332 15.5452 18.3332 14.1668V5.8335C18.3332 4.45516 17.2115 3.3335 15.8332 3.3335Z" fill="#231F20"/>
<mask id="mask0_71_47" style="mask-type:luminance" maskUnits="userSpaceOnUse" x="1" y="3" width="18" height="14">
<path id="Mask_2" fill-rule="evenodd" clip-rule="evenodd" d="M15.8332 15.0002H4.1665C3.70734 15.0002 3.33317 14.6268 3.33317 14.1668V6.04183L9.49984 10.6668C9.64817 10.7785 9.824 10.8335 9.99984 10.8335C10.1757 10.8335 10.3515 10.7785 10.4998 10.6668L16.6665 6.04183V14.1668C16.6665 14.6268 16.2923 15.0002 15.8332 15.0002ZM15.2773 5.00016L9.99984 8.9585L4.72234 5.00016H15.2773ZM15.8332 3.3335H4.1665C2.78817 3.3335 1.6665 4.45516 1.6665 5.8335V14.1668C1.6665 15.5452 2.78817 16.6668 4.1665 16.6668H15.8332C17.2115 16.6668 18.3332 15.5452 18.3332 14.1668V5.8335C18.3332 4.45516 17.2115 3.3335 15.8332 3.3335Z" fill="white"/>
</mask>
<g mask="url(#mask0_71_47)">
<g id="Icon/Color/Base">
<rect id="Base" width="83.3333" height="83.3333" fill="#0D1C2E"/>
</g>
</g>
</g>
</svg>
