<svg width="134" height="33" viewBox="0 0 134 33" fill="none" xmlns="http://www.w3.org/2000/svg">
<path d="M43.7581 5.38735C43.7581 6.29608 43.5286 7.09124 42.9549 7.65918C42.2664 8.3407 41.4632 8.68149 40.4304 8.68149C39.3977 8.68149 38.5945 8.3407 37.906 7.65918C37.2176 6.9776 36.8733 6.18251 36.8733 5.1602C36.8733 4.1379 37.2176 3.34281 37.906 2.66122C38.5945 1.97971 39.3977 1.63892 40.4304 1.63892C40.8894 1.63892 41.3484 1.75249 41.8074 1.97971C42.2664 2.20686 42.6106 2.43407 42.8401 2.7748L42.2664 3.34274C41.8074 2.7748 41.2336 2.54765 40.4304 2.54765C39.7419 2.54765 39.0535 2.7748 38.5945 3.34274C38.0207 3.7971 37.7913 4.47869 37.7913 5.27378C37.7913 6.06893 38.0207 6.75045 38.5945 7.20482C39.1682 7.65918 39.7419 7.99991 40.4304 7.99991C41.2336 7.99991 41.8074 7.77276 42.3811 7.20482C42.7253 6.86403 42.9549 6.40966 42.9549 5.84172H40.4304V5.04663H43.7581C43.7581 5.04663 43.7581 5.1602 43.7581 5.38735Z" fill="white" stroke="white" stroke-width="0.2" stroke-miterlimit="10"/>
<path d="M49.0371 2.54765H45.939V4.70584H48.8076V5.50099H45.939V7.65918H49.0371V8.45427H45.021V1.63892H49.0371V2.54765Z" fill="white" stroke="white" stroke-width="0.2" stroke-miterlimit="10"/>
<path d="M52.824 8.45427H51.9058V2.43407H49.9551V1.63892H54.7742V2.43407H52.824V8.45427Z" fill="white" stroke="white" stroke-width="0.2" stroke-miterlimit="10"/>
<path d="M58.1021 8.45427V1.63892H59.0195V8.45427H58.1021Z" fill="white" stroke="white" stroke-width="0.2" stroke-miterlimit="10"/>
<path d="M62.921 8.45427H62.0036V2.43407H60.0527V1.63892H64.7573V2.43407H62.8064V8.45427H62.921Z" fill="white" stroke="white" stroke-width="0.2" stroke-miterlimit="10"/>
<path d="M73.822 7.65918C73.1337 8.3407 72.3302 8.68149 71.2975 8.68149C70.2647 8.68149 69.4619 8.3407 68.773 7.65918C68.0847 6.9776 67.7402 6.18251 67.7402 5.1602C67.7402 4.1379 68.0847 3.34281 68.773 2.66122C69.4619 1.97971 70.2647 1.63892 71.2975 1.63892C72.3302 1.63892 73.1337 1.97971 73.822 2.66122C74.5102 3.34281 74.8547 4.1379 74.8547 5.1602C74.8547 6.06894 74.5102 6.9776 73.822 7.65918ZM69.4619 7.09124C69.9209 7.54561 70.6092 7.88633 71.2975 7.88633C71.9864 7.88633 72.6746 7.65918 73.1337 7.09124C73.5928 6.63688 73.9366 5.95536 73.9366 5.1602C73.9366 4.36505 73.7074 3.68353 73.1337 3.22916C72.6746 2.7748 71.9864 2.43407 71.2975 2.43407C70.6092 2.43407 69.9209 2.66122 69.4619 3.22916C69.0028 3.68353 68.6584 4.36505 68.6584 5.1602C68.6584 5.84172 68.8882 6.5233 69.4619 7.09124Z" fill="white" stroke="white" stroke-width="0.2" stroke-miterlimit="10"/>
<path d="M76.1172 8.45427V1.63892H77.1499L80.4773 6.9776V5.61457V1.63892H81.3954V8.45427H80.4773L76.92 2.88844V4.25147V8.45427H76.1172Z" fill="white" stroke="white" stroke-width="0.2" stroke-miterlimit="10"/>
<path d="M67.5103 18.4503C64.7566 18.4503 62.5766 20.4949 62.5766 23.3346C62.5766 26.0608 64.7566 28.219 67.5103 28.219C70.264 28.219 72.4447 26.1743 72.4447 23.3346C72.4447 20.4949 70.264 18.4503 67.5103 18.4503ZM67.5103 26.1743C66.0186 26.1743 64.7566 24.9249 64.7566 23.2211C64.7566 21.5172 66.0186 20.2677 67.5103 20.2677C69.0021 20.2677 70.264 21.4036 70.264 23.2211C70.264 25.0385 69.0021 26.1743 67.5103 26.1743ZM56.8387 18.4503C54.085 18.4503 51.9049 20.4949 51.9049 23.3346C51.9049 26.0608 54.085 28.219 56.8387 28.219C59.593 28.219 61.7731 26.1743 61.7731 23.3346C61.7731 20.4949 59.593 18.4503 56.8387 18.4503ZM56.8387 26.1743C55.3476 26.1743 54.085 24.9249 54.085 23.2211C54.085 21.5172 55.3476 20.2677 56.8387 20.2677C58.3305 20.2677 59.593 21.4036 59.593 23.2211C59.593 25.0385 58.3305 26.1743 56.8387 26.1743ZM44.1021 19.9269V21.9715H49.0362C48.9214 23.1075 48.4625 24.0162 47.8887 24.5841C47.2003 25.2656 46.0528 26.0608 44.1021 26.0608C41.0039 26.0608 38.709 23.6754 38.709 20.6085C38.709 17.5416 41.1187 15.1562 44.1021 15.1562C45.7086 15.1562 46.9707 15.8377 47.8887 16.6329L49.3804 15.1562C48.1182 14.0203 46.5117 13.1116 44.2168 13.1116C40.086 13.1116 36.5288 16.5193 36.5288 20.6085C36.5288 24.6977 40.086 28.1054 44.2168 28.1054C46.5117 28.1054 48.1182 27.4239 49.4952 25.9472C50.8722 24.5841 51.3311 22.6531 51.3311 21.1765C51.3311 20.7221 51.3311 20.2677 51.2164 19.9269H44.1021ZM96.1973 21.5172C95.7382 20.3813 94.5903 18.4503 92.0664 18.4503C89.5419 18.4503 87.4765 20.3813 87.4765 23.3346C87.4765 26.0608 89.5419 28.219 92.2956 28.219C94.4757 28.219 95.8528 26.8559 96.3119 26.0608L94.7055 24.9249C94.1319 25.72 93.4429 26.2879 92.2956 26.2879C91.1483 26.2879 90.4594 25.8336 89.8857 24.8113L96.4265 22.0851L96.1973 21.5172ZM89.5419 23.1075C89.5419 21.29 91.0337 20.2677 92.0664 20.2677C92.8693 20.2677 93.6728 20.7221 93.902 21.29L89.5419 23.1075ZM84.1485 27.7646H86.3285V13.5659H84.1485V27.7646ZM80.7065 19.4726C80.1322 18.9046 79.2147 18.3367 78.0667 18.3367C75.6575 18.3367 73.3622 20.4949 73.3622 23.2211C73.3622 25.9472 75.5429 27.9918 78.0667 27.9918C79.2147 27.9918 80.1322 27.4239 80.5912 26.8559H80.7065V27.5374C80.7065 29.3548 79.6738 30.3771 78.0667 30.3771C76.8048 30.3771 75.8867 29.4685 75.6575 28.6733L73.8213 29.4685C74.3949 30.7179 75.7721 32.3082 78.182 32.3082C80.7065 32.3082 82.7719 30.8315 82.7719 27.3103V18.6775H80.7065V19.4726ZM78.182 26.1743C76.6902 26.1743 75.4276 24.9249 75.4276 23.2211C75.4276 21.5172 76.6902 20.2677 78.182 20.2677C79.6738 20.2677 80.8211 21.5172 80.8211 23.2211C80.8211 24.9249 79.6738 26.1743 78.182 26.1743ZM106.18 13.5659H101.016V27.7646H103.196V22.4259H106.18C108.589 22.4259 110.885 20.7221 110.885 17.996C110.885 15.2698 108.589 13.5659 106.18 13.5659ZM106.295 20.4949H103.196V15.6106H106.295C107.901 15.6106 108.819 16.9736 108.819 17.996C108.705 19.1318 107.786 20.4949 106.295 20.4949ZM119.491 18.4503C117.884 18.4503 116.277 19.1318 115.704 20.6085L117.655 21.4036C118.114 20.6085 118.802 20.3813 119.605 20.3813C120.753 20.3813 121.785 21.0629 121.9 22.1988V22.3123C121.556 22.0851 120.638 21.7444 119.72 21.7444C117.655 21.7444 115.589 22.8803 115.589 24.9249C115.589 26.8559 117.31 28.1054 119.146 28.1054C120.638 28.1054 121.326 27.4239 121.9 26.7424H122.015V27.8782H124.08V22.4259C123.851 19.8134 121.9 18.4503 119.491 18.4503ZM119.261 26.1743C118.573 26.1743 117.54 25.8336 117.54 24.9249C117.54 23.789 118.802 23.4482 119.835 23.4482C120.753 23.4482 121.212 23.6754 121.785 23.9026C121.556 25.2657 120.408 26.1743 119.261 26.1743ZM131.309 18.6775L128.9 24.8113H128.785L126.261 18.6775H123.965L127.753 27.3103L125.572 32.081H127.753L133.604 18.6775H131.309ZM112.032 27.7646H114.212V13.5659H112.032V27.7646Z" fill="white"/>
<path d="M0.728253 30.6044C0.269259 30.3772 0.0397949 29.8093 0.0397949 29.2413C0.0397949 29.1277 0.0397949 28.9005 0.0397949 28.787C0.0397949 20.3814 0.0397949 11.9757 0.0397949 3.68366C0.0397949 3.22929 0.154527 2.88857 0.269259 2.4342C0.384057 2.20699 0.613521 1.97984 0.843052 1.75269C5.77712 6.637 10.5965 11.5213 15.4158 16.4057C10.4817 20.9492 5.66239 25.72 0.728253 30.6044Z" fill="white"/>
<path d="M20.2347 11.4077C18.8577 12.7708 17.366 14.1338 15.9891 15.6105C11.3992 10.9533 6.69461 6.29613 2.10474 1.63897C2.10474 1.63897 2.10474 1.52539 2.21947 1.52539C8.18632 4.81946 14.1531 8.1136 20.2347 11.4077Z" fill="white"/>
<path d="M2.10474 30.6043C6.69461 26.0608 11.3992 21.5172 15.9891 16.9736C17.2513 18.2231 18.6283 19.4726 20.12 20.8356C14.1531 24.1298 8.18632 27.4239 2.21947 30.6043H2.10474Z" fill="white"/>
<path d="M20.9241 20.3812C19.4323 19.0182 18.0554 17.6551 16.5637 16.2921C18.0554 14.8154 19.5471 13.3387 21.0388 11.8621C21.4978 12.0892 21.9568 12.3164 22.4158 12.6572C23.5632 13.3387 24.8255 13.9067 25.9729 14.5882C26.3172 14.7018 26.5467 14.929 26.7761 15.2697C27.2351 15.8376 27.2351 16.4057 26.7761 16.9736C26.5467 17.2007 26.3172 17.428 25.9729 17.5415C24.3665 18.5638 22.6453 19.4726 20.9241 20.3812Z" fill="white"/>
</svg>
