<svg preserveAspectRatio="none" width="20" height="20" viewBox="0 0 20 20" fill="none" xmlns="http://www.w3.org/2000/svg">
<path fill-rule="evenodd" clip-rule="evenodd" d="M18.997 8.9741H19C19.551 8.9741 19.999 9.4201 20 9.9711C20.008 12.6421 18.975 15.1571 17.091 17.0511C15.208 18.9451 12.7 19.9921 10.029 20.0001H10C7.339 20.0001 4.836 18.9681 2.949 17.0911C1.055 15.2081 0.00799999 12.7001 -1.36976e-08 10.0291C-0.00800001 7.3571 1.025 4.8431 2.909 2.9491C4.792 1.0551 7.3 0.0080999 9.971 9.98974e-05C10.766 0.0120999 11.576 0.0920999 12.352 0.2781C12.888 0.4081 13.219 0.9481 13.089 1.4851C12.96 2.0211 12.417 2.3511 11.883 2.2231C11.262 2.0731 10.603 2.0101 9.977 2.0001C7.84 2.0061 5.833 2.8441 4.327 4.3591C2.82 5.8741 1.994 7.8861 2 10.0231C2.006 12.1601 2.844 14.1661 4.359 15.6731C5.869 17.1741 7.871 18.0001 10 18.0001H10.023C12.16 17.9941 14.167 17.1561 15.673 15.6411C17.18 14.1251 18.006 12.1141 18 9.9771C17.999 9.4251 18.445 8.9751 18.997 8.9741ZM6.293 9.293C6.684 8.902 7.316 8.902 7.707 9.293L9.951 11.537L16.248 4.341C16.612 3.928 17.243 3.884 17.659 4.248C18.074 4.611 18.116 5.243 17.752 5.659L10.752 13.659C10.57 13.867 10.31 13.99 10.033 14H10C9.735 14 9.481 13.895 9.293 13.707L6.293 10.707C5.902 10.316 5.902 9.684 6.293 9.293Z" fill="#231F20"/>
</svg>
