<svg preserveAspectRatio="none" width="18" height="14" viewBox="0 0 18 14" fill="none" xmlns="http://www.w3.org/2000/svg">
<path fill-rule="evenodd" clip-rule="evenodd" d="M14.8333 12H3.16667C2.7075 12 2.33333 11.6267 2.33333 11.1667V3.04167L8.5 7.66667C8.64833 7.77833 8.82417 7.83333 9 7.83333C9.17583 7.83333 9.35167 7.77833 9.5 7.66667L15.6667 3.04167V11.1667C15.6667 11.6267 15.2925 12 14.8333 12V12ZM14.2775 2L9 5.95833L3.7225 2H14.2775ZM14.8333 0.333333H3.16667C1.78833 0.333333 0.666667 1.455 0.666667 2.83333V11.1667C0.666667 12.545 1.78833 13.6667 3.16667 13.6667H14.8333C16.2117 13.6667 17.3333 12.545 17.3333 11.1667V2.83333C17.3333 1.455 16.2117 0.333333 14.8333 0.333333V0.333333Z" fill="#231F20"/>
</svg>
