<svg preserveAspectRatio="none" width="16" height="20" viewBox="0 0 16 20" fill="none" xmlns="http://www.w3.org/2000/svg">
<path fill-rule="evenodd" clip-rule="evenodd" d="M8 12H5C4.448 12 4 11.552 4 11C4 10.448 4.448 10 5 10H8C8.552 10 9 10.448 9 11C9 11.552 8.552 12 8 12ZM4 15C4 14.448 4.448 14 5 14H11C11.553 14 12 14.448 12 15C12 15.552 11.553 16 11 16H5C4.448 16 4 15.552 4 15ZM13.4443 18H2.5553C2.2493 18 2.0003 17.776 2.0003 17.5V2.5C2.0003 2.224 2.2493 2 2.5553 2H8.0003V5.15C8.0003 6.722 9.2173 8 10.7143 8H14.0003V17.5C14.0003 17.776 13.7513 18 13.4443 18V18ZM10.0003 2.978L12.7423 6H10.7143C10.3203 6 10.0003 5.619 10.0003 5.15V2.978ZM15.7403 6.328L10.2963 0.328C10.1063 0.119 9.8383 0 9.5553 0H2.5553C1.1463 0 0.000299931 1.122 0.000299931 2.5V17.5C0.000299931 18.878 1.1463 20 2.5553 20H13.4443C14.8533 20 16.0003 18.878 16.0003 17.5V7C16.0003 6.751 15.9073 6.512 15.7403 6.328V6.328Z" fill="#231F20"/>
</svg>
