<svg width="113" height="20" viewBox="0 0 113 20" fill="none" xmlns="http://www.w3.org/2000/svg">
<path fill-rule="evenodd" clip-rule="evenodd" d="M10.0693 17.037C13.9827 17.037 17.1551 13.8864 17.1551 10C17.1551 6.11355 13.9827 2.96296 10.0693 2.96296C6.15592 2.96296 2.9835 6.11355 2.9835 10C2.9835 13.8864 6.15592 17.037 10.0693 17.037ZM10.0693 20C15.6304 20 20.1386 15.5228 20.1386 10C20.1386 4.47715 15.6304 0 10.0693 0C4.50818 0 0 4.47715 0 10C0 15.5228 4.50818 20 10.0693 20Z" fill="#FF6C46"/>
<path fill-rule="evenodd" clip-rule="evenodd" d="M17.96 16.2128C17.3097 17.0263 16.5346 17.7369 15.6634 18.3161C17.2634 19.3797 19.1875 20 21.2574 20C26.8186 20 31.3267 15.5229 31.3267 10C31.3267 4.47718 26.8186 2.90068e-05 21.2574 2.90068e-05C19.1875 2.90068e-05 17.2634 0.620331 15.6634 1.68397C16.5346 2.26313 17.3097 2.97373 17.96 3.78721C18.9432 3.27436 20.0644 2.98353 21.2574 2.98353C25.1903 2.98353 28.3432 6.14432 28.3432 10C28.3432 13.8557 25.1903 17.0165 21.2574 17.0165C20.0644 17.0165 18.9432 16.7257 17.96 16.2128Z" fill="url(#paint0_linear_19_9)"/>
<path d="M101.407 11.376C101.407 10.2752 101.628 9.29893 102.07 8.44715C102.526 7.59537 103.135 6.94015 103.899 6.4815C104.675 6.02284 105.539 5.79352 106.49 5.79352C107.321 5.79352 108.044 5.95732 108.66 6.28493C109.29 6.61254 109.792 7.02533 110.167 7.52329V5.79352H113V17.0371H110.167V15.268C109.805 15.779 109.303 16.2049 108.66 16.5456C108.031 16.8733 107.301 17.0371 106.47 17.0371C105.533 17.0371 104.675 16.8012 103.899 16.3294C103.135 15.8577 102.526 15.1959 102.07 14.3441C101.628 13.4792 101.407 12.4898 101.407 11.376ZM110.167 11.4153C110.167 10.747 110.033 10.1769 109.765 9.70517C109.497 9.22031 109.136 8.85339 108.68 8.6044C108.225 8.34232 107.736 8.21127 107.214 8.21127C106.691 8.21127 106.209 8.33576 105.767 8.58475C105.325 8.83373 104.963 9.20065 104.682 9.68551C104.414 10.1573 104.28 10.7208 104.28 11.376C104.28 12.0312 104.414 12.6078 104.682 13.1057C104.963 13.5906 105.325 13.9641 105.767 14.2262C106.222 14.4883 106.705 14.6193 107.214 14.6193C107.736 14.6193 108.225 14.4948 108.68 14.2458C109.136 13.9837 109.497 13.6168 109.765 13.1451C110.033 12.6602 110.167 12.0836 110.167 11.4153Z" fill="black"/>
<path d="M91.929 7.56263C92.2907 7.03846 92.7863 6.61257 93.4158 6.28496C94.0587 5.95735 94.7887 5.79354 95.6058 5.79354C96.5568 5.79354 97.414 6.02287 98.1775 6.48152C98.9544 6.94017 99.5638 7.59539 100.006 8.44717C100.461 9.28585 100.689 10.2621 100.689 11.376C100.689 12.4899 100.461 13.4792 100.006 14.3441C99.5638 15.1959 98.9544 15.8577 98.1775 16.3294C97.414 16.8012 96.5568 17.0371 95.6058 17.0371C94.7753 17.0371 94.0453 16.8798 93.4158 16.5653C92.7997 16.2377 92.3041 15.8184 91.929 15.3073V17.0371H89.1162V2.96301H91.929V7.56263ZM97.8158 11.376C97.8158 10.7208 97.6752 10.1573 97.3939 9.68554C97.126 9.20068 96.7644 8.83375 96.309 8.58477C95.867 8.33579 95.3848 8.2113 94.8624 8.2113C94.3534 8.2113 93.8712 8.34234 93.4158 8.60443C92.9738 8.85341 92.6121 9.22033 92.3309 9.70519C92.063 10.1901 91.929 10.7601 91.929 11.4153C91.929 12.0705 92.063 12.6406 92.3309 13.1254C92.6121 13.6103 92.9738 13.9838 93.4158 14.2459C93.8712 14.4948 94.3534 14.6193 94.8624 14.6193C95.3848 14.6193 95.867 14.4883 96.309 14.2262C96.7644 13.9641 97.126 13.5906 97.3939 13.1058C97.6752 12.6209 97.8158 12.0443 97.8158 11.376Z" fill="black"/>
<path d="M75.3792 11.376C75.3792 10.2752 75.6002 9.29893 76.0422 8.44715C76.4976 7.59537 77.107 6.94015 77.8705 6.4815C78.6474 6.02284 79.5113 5.79352 80.4623 5.79352C81.2928 5.79352 82.0161 5.95732 82.6322 6.28493C83.2617 6.61254 83.764 7.02533 84.1391 7.52329V5.79352H86.972V17.0371H84.1391V15.268C83.7774 15.779 83.2751 16.2049 82.6322 16.5456C82.0027 16.8733 81.2727 17.0371 80.4422 17.0371C79.5046 17.0371 78.6474 16.8012 77.8705 16.3294C77.107 15.8577 76.4976 15.1959 76.0422 14.3441C75.6002 13.4792 75.3792 12.4898 75.3792 11.376ZM84.1391 11.4153C84.1391 10.747 84.0051 10.1769 83.7372 9.70517C83.4693 9.22031 83.1077 8.85339 82.6523 8.6044C82.1969 8.34232 81.708 8.21127 81.1856 8.21127C80.6632 8.21127 80.181 8.33576 79.739 8.58475C79.297 8.83373 78.9354 9.20065 78.6541 9.68551C78.3862 10.1573 78.2522 10.7208 78.2522 11.376C78.2522 12.0312 78.3862 12.6078 78.6541 13.1057C78.9354 13.5906 79.297 13.9641 79.739 14.2262C80.1944 14.4883 80.6766 14.6193 81.1856 14.6193C81.708 14.6193 82.1969 14.4948 82.6523 14.2458C83.1077 13.9837 83.4693 13.6168 83.7372 13.1451C84.0051 12.6602 84.1391 12.0836 84.1391 11.4153Z" fill="black"/>
<path d="M73.9261 2.96301V17.0371H71.1133V2.96301H73.9261Z" fill="black"/>
<path d="M68.9371 2.96301V17.0371H66.1243V2.96301H68.9371Z" fill="black"/>
<path d="M58.8574 17.0371C57.7858 17.0371 56.8214 16.8077 55.9642 16.3491C55.107 15.8773 54.4306 15.2156 53.935 14.3638C53.4528 13.512 53.2117 12.5292 53.2117 11.4153C53.2117 10.3014 53.4595 9.31859 53.9551 8.46681C54.464 7.61502 55.1539 6.95981 56.0245 6.50115C56.8951 6.0294 57.8662 5.79352 58.9378 5.79352C60.0093 5.79352 60.9804 6.0294 61.851 6.50115C62.7217 6.95981 63.4048 7.61502 63.9004 8.46681C64.4094 9.31859 64.6638 10.3014 64.6638 11.4153C64.6638 12.5292 64.4027 13.512 63.8803 14.3638C63.3713 15.2156 62.6748 15.8773 61.7908 16.3491C60.9201 16.8077 59.9423 17.0371 58.8574 17.0371ZM58.8574 14.639C59.3664 14.639 59.8419 14.521 60.2839 14.2851C60.7393 14.0362 61.1009 13.6692 61.3688 13.1844C61.6367 12.6995 61.7707 12.1098 61.7707 11.4153C61.7707 10.38 61.4894 9.58723 60.9268 9.03685C60.3776 8.47336 59.7012 8.19162 58.8976 8.19162C58.0939 8.19162 57.4175 8.47336 56.8683 9.03685C56.3326 9.58723 56.0647 10.38 56.0647 11.4153C56.0647 12.4505 56.3259 13.2499 56.8482 13.8134C57.384 14.3638 58.0537 14.639 58.8574 14.639Z" fill="black"/>
<path d="M38.4126 10.0099C38.4126 8.65449 38.7228 7.44382 39.3433 6.3779C39.9773 5.29882 40.8338 4.46319 41.9128 3.87102C43.0054 3.26568 44.2261 2.96301 45.575 2.96301C47.1531 2.96301 48.5357 3.3578 49.7227 4.14737C50.9096 4.93694 51.7392 6.02917 52.2113 7.42408H48.9538C48.6301 6.7661 48.1715 6.27262 47.578 5.94364C46.998 5.61465 46.3236 5.45016 45.5547 5.45016C44.7319 5.45016 43.9968 5.64097 43.3494 6.02259C42.7154 6.39106 42.2163 6.91744 41.8522 7.60173C41.5015 8.28603 41.3261 9.08876 41.3261 10.0099C41.3261 10.9179 41.5015 11.7207 41.8522 12.4181C42.2163 13.1024 42.7154 13.6354 43.3494 14.017C43.9968 14.3855 44.7319 14.5697 45.5547 14.5697C46.3236 14.5697 46.998 14.4052 47.578 14.0762C48.1715 13.7341 48.6301 13.234 48.9538 12.576H52.2113C51.7392 13.9841 50.9096 15.0829 49.7227 15.8725C48.5492 16.6489 47.1666 17.0371 45.575 17.0371C44.2261 17.0371 43.0054 16.741 41.9128 16.1488C40.8338 15.5435 39.9773 14.7079 39.3433 13.6419C38.7228 12.576 38.4126 11.3653 38.4126 10.0099Z" fill="black"/>
<defs>
<linearGradient id="paint0_linear_19_9" x1="31.6788" y1="4.13305" x2="16.8435" y2="12.6664" gradientUnits="userSpaceOnUse">
<stop stop-color="#3D5AD2"/>
<stop offset="1" stop-color="#213AA3"/>
</linearGradient>
</defs>
</svg>
