<svg width="68" height="38" viewBox="0 0 68 38" fill="none" xmlns="http://www.w3.org/2000/svg">
<rect width="68" height="38" rx="19" fill="url(#paint0_linear_2001_36)"/>
<path fill-rule="evenodd" clip-rule="evenodd" d="M19.0693 26.037C22.9827 26.037 26.1551 22.8864 26.1551 19C26.1551 15.1136 22.9827 11.963 19.0693 11.963C15.1559 11.963 11.9835 15.1136 11.9835 19C11.9835 22.8864 15.1559 26.037 19.0693 26.037ZM19.0693 29C24.6304 29 29.1386 24.5228 29.1386 19C29.1386 13.4772 24.6304 9 19.0693 9C13.5082 9 9 13.4772 9 19C9 24.5228 13.5082 29 19.0693 29Z" fill="black"/>
<path fill-rule="evenodd" clip-rule="evenodd" d="M19.0693 26.037C22.9827 26.037 26.1551 22.8864 26.1551 19C26.1551 15.1136 22.9827 11.963 19.0693 11.963C15.1559 11.963 11.9835 15.1136 11.9835 19C11.9835 22.8864 15.1559 26.037 19.0693 26.037ZM19.0693 29C24.6304 29 29.1386 24.5228 29.1386 19C29.1386 13.4772 24.6304 9 19.0693 9C13.5082 9 9 13.4772 9 19C9 24.5228 13.5082 29 19.0693 29Z" fill="white"/>
<path fill-rule="evenodd" clip-rule="evenodd" d="M26.9602 25.2127C26.3099 26.0262 25.5348 26.7368 24.6636 27.316C26.2636 28.3797 28.1877 29 30.2578 29C35.8189 29 40.3271 24.5228 40.3271 19C40.3271 13.4772 35.8189 9 30.2578 9C28.1878 9 26.2636 9.62033 24.6636 10.684C25.5348 11.2632 26.3099 11.9738 26.9602 12.7873C27.9435 12.2744 29.0647 11.9835 30.2578 11.9835C34.1906 11.9835 37.3436 15.1443 37.3436 19C37.3436 22.8557 34.1906 26.0165 30.2578 26.0165C29.0647 26.0165 27.9434 25.7256 26.9602 25.2127Z" fill="black"/>
<path fill-rule="evenodd" clip-rule="evenodd" d="M26.9602 25.2127C26.3099 26.0262 25.5348 26.7368 24.6636 27.316C26.2636 28.3797 28.1877 29 30.2578 29C35.8189 29 40.3271 24.5228 40.3271 19C40.3271 13.4772 35.8189 9 30.2578 9C28.1878 9 26.2636 9.62033 24.6636 10.684C25.5348 11.2632 26.3099 11.9738 26.9602 12.7873C27.9435 12.2744 29.0647 11.9835 30.2578 11.9835C34.1906 11.9835 37.3436 15.1443 37.3436 19C37.3436 22.8557 34.1906 26.0165 30.2578 26.0165C29.0647 26.0165 27.9434 25.7256 26.9602 25.2127Z" fill="url(#paint1_linear_2001_36)"/>
<path d="M44 19H56.5M56.5 19L50.5 13M56.5 19L50.5 25" stroke="white" stroke-opacity="0.4" stroke-width="3"/>
<defs>
<linearGradient id="paint0_linear_2001_36" x1="68" y1="19" x2="2.89258e-07" y2="19" gradientUnits="userSpaceOnUse">
<stop stop-color="#FF6C46"/>
<stop offset="1" stop-color="#E44820"/>
</linearGradient>
<linearGradient id="paint1_linear_2001_36" x1="40.679" y1="13.1331" x2="25.8438" y2="21.6664" gradientUnits="userSpaceOnUse">
<stop offset="1" stop-color="white"/>
</linearGradient>
</defs>
</svg>
